<?xml version="1.0" standalone="no"?>
<!DOCTYPE svg PUBLIC "-//W3C//DTD SVG 20010904//EN"
 "http://www.w3.org/TR/2001/REC-SVG-20010904/DTD/svg10.dtd">
<svg version="1.0" xmlns="http://www.w3.org/2000/svg"
 width="1569.000000pt" height="826.000000pt" viewBox="0 0 1569.000000 826.000000"
 preserveAspectRatio="xMidYMid meet">

<g transform="translate(0.000000,826.000000) scale(0.100000,-0.100000)"
fill="#000000" stroke="none">
<path d="M1034 8083 c-201 -450 -414 -1089 -554 -1656 -392 -1604 -452 -3240
-179 -4932 39 -243 67 -344 133 -480 157 -321 428 -560 761 -669 170 -56 196
-59 568 -63 216 -3 347 -1 347 5 0 11 -137 808 -144 837 -5 18 -15 20 -84 22
-276 9 -543 211 -628 477 -37 117 -44 263 -16 373 37 144 109 265 220 364 l55
48 -39 -5 c-340 -47 -595 -116 -665 -180 -26 -23 -73 -14 -77 14 -12 82 240
175 648 241 90 15 450 51 503 51 41 0 46 3 72 43 16 23 53 67 82 98 l54 56
-103 8 c-57 4 -359 6 -673 4 -314 -2 -576 0 -582 4 -21 13 -15 55 8 68 25 13
983 20 1279 10 l185 -7 105 35 c91 30 120 35 215 37 l110 3 38 48 c128 160
304 279 482 328 91 25 312 31 408 11 180 -37 334 -122 468 -257 l86 -87 59 20
c82 28 220 34 314 14 87 -18 192 -68 269 -126 51 -40 55 -41 85 -28 45 18
1420 19 1454 0 24 -14 30 -56 10 -69 -7 -4 -254 -6 -548 -4 -294 2 -614 0
-712 -4 l-176 -8 29 -47 c16 -25 38 -67 49 -92 l20 -46 107 -6 c556 -35 939
-104 1143 -206 67 -34 93 -61 88 -92 -4 -28 -51 -37 -76 -15 -27 24 -112 63
-184 85 -147 46 -447 97 -683 117 -38 3 -92 8 -120 11 l-50 5 25 -21 c70 -59
137 -132 180 -195 42 -62 53 -72 94 -84 66 -19 152 -78 216 -147 259 -282 139
-740 -227 -866 -56 -19 -87 -23 -173 -22 -99 1 -144 10 -231 48 -13 6 -25 -53
-88 -416 -40 -233 -75 -431 -78 -441 -5 -18 10 -18 354 -14 383 4 407 7 578
63 185 60 346 158 491 296 111 107 199 228 270 373 66 136 94 237 133 480 215
1337 224 2586 26 3905 -123 814 -358 1694 -640 2395 -51 127 -104 256 -119
288 l-26 59 -37 -30 c-21 -16 -114 -108 -208 -203 -262 -268 -470 -517 -664
-796 -51 -73 -99 -133 -108 -133 -8 0 -59 11 -114 25 -248 63 -510 110 -789
142 -122 14 -237 18 -540 18 -303 0 -418 -4 -540 -18 -279 -32 -541 -79 -789
-142 -55 -14 -106 -25 -114 -25 -9 0 -57 60 -108 133 -197 282 -402 528 -664
796 -93 95 -187 187 -208 203 l-37 30 -26 -59z m1435 -2544 c164 -93 244 -517
161 -851 -25 -101 -82 -210 -132 -252 -68 -59 -131 -52 -198 20 -76 82 -124
226 -139 414 -17 207 14 406 84 545 33 65 49 86 89 113 56 37 85 40 135 11z
m2237 -11 c40 -27 56 -48 89 -113 144 -288 107 -811 -70 -974 -39 -36 -50 -41
-93 -41 -41 0 -55 5 -89 34 -103 89 -165 293 -164 546 0 269 76 492 191 559
49 29 80 26 136 -11z m-3196 -2222 c208 -26 419 -80 616 -158 84 -33 105 -45
110 -65 6 -24 -10 -53 -30 -53 -7 0 -68 21 -137 46 -151 56 -383 116 -539 140
-153 23 -402 23 -529 0 -92 -16 -95 -16 -114 2 -15 16 -17 24 -8 40 6 11 21
24 33 28 105 33 409 43 598 20z m4487 3 c112 -15 151 -27 164 -51 9 -17 7 -24
-8 -40 -18 -18 -23 -18 -109 -4 -322 53 -697 4 -1093 -145 -57 -21 -109 -39
-116 -39 -21 0 -38 28 -31 53 14 55 430 185 711 222 125 16 378 18 482 4z"/>
<path d="M9248 6250 c-217 -17 -409 -65 -602 -151 -410 -183 -738 -556 -885
-1005 -70 -214 -101 -424 -101 -690 0 -553 156 -982 474 -1299 304 -304 680
-454 1181 -472 175 -6 319 6 450 38 100 25 303 123 457 222 64 41 132 80 151
86 76 25 115 -25 142 -181 8 -46 15 -86 15 -90 0 -5 25 -8 57 -8 l56 0 -6 103
c-4 56 -10 335 -14 620 l-6 517 -54 0 c-29 0 -53 -1 -53 -3 0 -27 -36 -275
-51 -353 -53 -274 -109 -395 -246 -531 -152 -150 -272 -224 -449 -275 -68 -20
-101 -23 -239 -22 -152 0 -164 2 -247 31 -219 76 -390 239 -518 493 -331 658
-292 1908 77 2463 90 136 209 247 329 306 218 108 528 100 769 -19 95 -47 263
-184 336 -273 109 -134 176 -329 223 -646 8 -57 18 -106 20 -109 3 -2 27 -5
54 -6 l49 -1 6 490 c4 270 10 538 14 598 l6 107 -56 0 c-32 0 -57 -4 -57 -9 0
-4 -7 -48 -15 -95 -17 -98 -43 -158 -80 -182 -33 -21 -75 -7 -156 52 -136 100
-305 193 -427 234 -158 53 -391 76 -604 60z"/>
<path d="M14504 6014 c-131 -62 -363 -114 -507 -114 -30 0 -69 -3 -86 -6 l-31
-6 -2 -322 -3 -321 -180 -2 c-99 -1 -190 -3 -202 -3 -20 0 -23 -5 -23 -45 l0
-45 203 -2 202 -3 5 -970 c6 -1046 7 -1059 61 -1197 65 -166 198 -278 385
-325 51 -13 109 -17 224 -17 141 0 162 3 236 27 144 48 245 130 340 277 38 59
94 175 94 195 0 2 -18 14 -39 25 l-40 20 -37 -70 c-76 -145 -180 -220 -305
-220 -91 0 -144 29 -179 95 l-25 49 -3 1058 -2 1058 290 0 291 0 -3 46 -3 46
-287 -1 -288 -1 0 405 c0 223 -3 405 -7 404 -5 0 -40 -16 -79 -35z"/>
<path d="M12000 5304 c-14 -2 -59 -9 -100 -15 -165 -23 -368 -92 -464 -158
-93 -64 -175 -150 -208 -220 -31 -62 -33 -72 -33 -176 0 -91 4 -120 23 -167
28 -70 98 -149 156 -178 103 -49 250 -46 363 7 275 130 265 516 -18 667 -68
36 -64 33 -49 52 53 63 267 113 406 93 170 -23 272 -121 310 -298 10 -47 14
-139 14 -316 0 -224 -2 -254 -19 -292 -47 -103 -156 -166 -486 -283 -414 -146
-529 -204 -661 -335 -96 -96 -138 -173 -160 -296 -38 -210 16 -422 142 -558
106 -114 246 -163 469 -163 192 0 334 37 465 120 71 45 169 140 217 209 l37
55 18 -70 c58 -239 175 -315 479 -313 178 1 285 23 405 84 60 31 134 84 134
96 0 6 -9 26 -21 45 l-21 35 -54 -36 c-38 -25 -69 -37 -103 -41 -57 -5 -85 7
-108 51 -17 30 -18 97 -24 897 -5 748 -8 877 -22 957 -42 231 -138 363 -333
459 -136 67 -238 85 -509 89 -121 2 -231 2 -245 -1z m400 -1627 l0 -504 -55
-61 c-165 -182 -432 -174 -533 15 -72 135 -68 375 9 531 49 100 132 180 312
300 102 68 176 126 210 163 29 32 53 58 55 58 1 1 2 -225 2 -502z"/>
<path d="M3102 2898 c-34 -34 6 -91 49 -68 31 17 23 74 -11 78 -14 2 -31 -3
-38 -10z"/>
<path d="M3430 2620 c-15 -28 4 -60 34 -60 32 0 50 24 42 55 -5 20 -13 25 -36
25 -19 0 -33 -7 -40 -20z"/>
<path d="M4320 2483 c-56 -20 -83 -89 -56 -141 32 -61 108 -72 157 -23 73 73
-5 199 -101 164z"/>
<path d="M2437 2292 c-20 -22 -22 -63 -5 -80 20 -20 65 -14 82 10 21 30 20 44
-4 68 -25 25 -52 26 -73 2z"/>
<path d="M3056 2275 c-41 -22 -55 -44 -56 -88 0 -53 43 -97 95 -97 47 0 71 14
91 52 43 83 -48 177 -130 133z"/>
<path d="M3785 2170 c-66 -14 -106 -61 -112 -129 -11 -119 114 -195 219 -133
32 19 68 80 68 116 0 92 -88 165 -175 146z"/>
<path d="M1841 1937 c-14 -17 -6 -43 16 -51 22 -9 45 13 41 38 -4 25 -40 33
-57 13z"/>
<path d="M2300 1928 c-25 -28 -26 -62 0 -88 41 -41 113 -13 113 45 0 59 -72
86 -113 43z"/>
<path d="M8330 1916 c0 -4 11 -11 25 -16 l25 -10 -2 -217 c-3 -215 -3 -218
-25 -228 -13 -5 -23 -12 -23 -15 0 -3 69 -5 153 -4 134 1 157 4 194 22 54 28
73 56 73 109 0 56 -30 89 -100 113 l-55 19 30 11 c73 28 109 94 80 149 -28 55
-63 65 -227 69 -82 2 -148 1 -148 -2z m255 -39 c9 -13 15 -44 15 -78 0 -73
-25 -109 -76 -109 l-34 0 0 93 c0 50 4 97 8 103 18 28 65 23 87 -9z m8 -219
c20 -10 47 -66 47 -95 0 -46 -22 -94 -50 -108 -40 -21 -77 -19 -90 4 -11 22
-14 204 -3 215 9 9 69 -1 96 -16z"/>
<path d="M9666 1888 c-7 -18 -46 -118 -86 -221 -43 -109 -83 -198 -97 -211
l-24 -24 66 -4 c37 -1 69 -1 71 1 2 3 -9 10 -26 17 -36 15 -39 44 -13 117 l17
47 77 0 76 0 21 -57 c30 -85 30 -95 3 -109 -21 -11 -11 -13 80 -16 111 -3 123
-2 97 13 -17 9 -35 51 -138 317 -57 147 -65 162 -87 162 -18 0 -27 -9 -37 -32z
m-6 -92 c0 -3 13 -41 30 -85 l29 -81 -68 0 -69 0 32 85 c17 47 34 85 39 85 4
0 7 -2 7 -4z"/>
<path d="M10650 1910 c0 -5 7 -10 15 -10 29 0 35 -39 35 -230 0 -191 -6 -230
-35 -230 -8 0 -15 -3 -15 -7 0 -5 48 -7 107 -5 91 3 103 5 82 15 -23 12 -24
18 -27 120 -1 59 1 107 6 107 14 0 35 -28 91 -120 54 -88 61 -110 36 -110 -8
0 -15 -3 -15 -7 0 -6 152 -8 198 -3 1 0 -11 12 -26 28 -30 28 -182 261 -182
279 0 18 145 163 163 163 9 0 17 5 17 10 0 6 -33 10 -80 10 -47 0 -80 -4 -80
-10 0 -5 7 -10 15 -10 21 0 34 -31 24 -58 -12 -32 -132 -152 -152 -152 -15 0
-17 12 -17 100 0 98 1 101 25 110 14 5 25 12 25 15 0 3 -47 5 -105 5 -63 0
-105 -4 -105 -10z"/>
<path d="M11840 1915 c0 -3 11 -10 24 -14 31 -13 36 -42 36 -231 0 -182 -5
-221 -32 -227 -49 -14 -2 -18 169 -16 l188 2 3 81 c3 89 -8 104 -26 36 -6 -24
-22 -57 -36 -72 -22 -26 -30 -29 -88 -29 l-63 0 -3 113 c-3 108 -2 112 18 112
25 0 80 -51 80 -74 0 -8 5 -18 10 -21 6 -4 10 30 10 94 0 97 -12 132 -26 76
-7 -30 -49 -65 -76 -65 -17 0 -18 8 -16 108 l3 107 57 3 c50 3 61 0 82 -21 14
-14 30 -44 36 -67 6 -23 13 -40 14 -39 2 2 6 37 9 77 l6 72 -190 0 c-104 0
-189 -2 -189 -5z"/>
<path d="M12990 1911 c0 -6 9 -11 19 -11 10 0 22 -7 25 -16 11 -27 7 -404 -4
-425 -6 -10 -17 -19 -25 -19 -8 0 -15 -3 -15 -7 0 -5 48 -7 107 -5 91 3 103 5
82 15 -23 12 -24 18 -27 115 l-3 102 35 0 c46 0 61 -23 80 -123 18 -93 19 -95
63 -113 38 -16 101 -6 123 21 10 12 7 14 -17 12 -25 -2 -29 3 -41 43 -37 124
-44 134 -107 155 -17 5 -14 9 20 24 61 28 88 63 89 115 1 49 -17 76 -69 104
-37 20 -335 32 -335 13z m236 -11 c22 0 54 -61 54 -103 0 -62 -23 -103 -64
-117 -62 -20 -66 -13 -66 99 0 79 3 103 16 116 9 9 23 14 31 11 8 -3 21 -6 29
-6z"/>
<path d="M14120 1911 c0 -5 4 -11 10 -13 5 -1 43 -66 85 -143 l76 -140 -3 -80
c-3 -73 -5 -80 -27 -92 -21 -10 -9 -12 82 -15 59 -2 107 0 107 5 0 4 -7 7 -15
7 -25 0 -35 36 -35 130 0 90 1 92 51 191 29 54 63 111 76 125 13 14 22 28 20
31 -3 2 -36 3 -73 1 -69 -3 -69 -3 -39 -18 43 -22 42 -52 -5 -149 l-41 -85
-55 102 c-30 55 -54 107 -54 115 0 7 12 18 28 24 22 9 8 11 -80 12 -60 1 -108
-3 -108 -8z"/>
<path d="M4722 1804 c-26 -18 -30 -65 -7 -84 22 -18 66 -15 82 6 19 25 16 51
-7 74 -24 24 -38 25 -68 4z"/>
<path d="M3135 1725 c-43 -42 -28 -103 28 -124 46 -18 89 8 102 61 6 22 1 33
-23 58 -37 37 -74 39 -107 5z"/>
<path d="M4210 1675 c-53 -56 -15 -145 62 -145 52 0 88 35 88 85 0 77 -97 116
-150 60z"/>
<path d="M5236 1665 c-26 -27 -29 -56 -8 -84 27 -36 77 -36 104 0 32 43 3 99
-52 99 -16 0 -35 -7 -44 -15z"/>
<path d="M2649 1561 c-50 -51 -34 -134 31 -161 84 -35 168 58 126 138 -32 61
-108 72 -157 23z"/>
<path d="M3966 1188 c-3 -13 -8 -122 -11 -243 -4 -121 -10 -310 -15 -420 -5
-110 -10 -210 -10 -223 0 -22 2 -23 102 -20 l103 3 42 375 c23 206 42 391 42
411 1 36 1 36 -66 59 -38 12 -92 35 -120 51 -29 16 -55 29 -58 29 -2 0 -7 -10
-9 -22z"/>
<path d="M2232 1160 c3 -14 39 -217 79 -452 l74 -428 118 0 117 0 -6 53 c-3
28 -20 182 -37 342 l-32 290 -89 43 c-60 30 -110 65 -158 110 -59 55 -70 63
-66 42z"/>
<path d="M4542 1134 c-28 -11 -44 -23 -47 -37 -7 -32 -85 -757 -85 -790 l0
-27 114 0 114 0 15 83 c64 353 129 748 123 754 -3 4 -32 10 -64 14 -31 4 -73
9 -92 12 -21 4 -53 0 -78 -9z"/>
<path d="M3330 1104 c0 -16 7 -180 15 -364 8 -184 15 -363 15 -397 l0 -63 150
0 c113 0 150 3 150 13 0 6 7 163 15 347 20 454 20 484 -2 476 -57 -22 -221
-17 -320 10 -20 6 -23 3 -23 -22z"/>
<path d="M2965 994 c-44 -18 -89 -34 -100 -34 -50 -1 -50 2 -16 -312 18 -161
35 -310 38 -330 l6 -38 100 0 100 0 -6 178 c-4 97 -10 266 -13 375 -5 133 -11
197 -18 196 -6 -1 -47 -17 -91 -35z"/>
</g>
</svg>
